<mxfile host="app.diagrams.net" modified="2024-04-16T20:28:46.910Z" agent="Mozilla/5.0 (Windows NT 10.0; Win64; x64; rv:124.0) Gecko/20100101 Firefox/124.0" etag="dXaBuRHkva6rOJa1iRBD" version="24.2.5" type="device">
  <diagram name="Seite-1" id="WYNEWtRwPbYiH76f6ODU">
    <mxGraphModel dx="1027" dy="878" grid="1" gridSize="10" guides="1" tooltips="1" connect="1" arrows="1" fold="1" page="1" pageScale="1" pageWidth="827" pageHeight="1169" math="0" shadow="0">
      <root>
        <mxCell id="0" />
        <mxCell id="1" parent="0" />
        <mxCell id="WTT6jk7BK0KkzkuvmUOc-1" value="" style="ellipse;whiteSpace=wrap;html=1;fillColor=#dae8fc;strokeColor=#6c8ebf;" vertex="1" parent="1">
          <mxGeometry x="320" y="440" width="40" height="40" as="geometry" />
        </mxCell>
        <mxCell id="WTT6jk7BK0KkzkuvmUOc-2" value="" style="ellipse;whiteSpace=wrap;html=1;fillColor=#dae8fc;strokeColor=#6c8ebf;" vertex="1" parent="1">
          <mxGeometry x="390" y="470" width="40" height="40" as="geometry" />
        </mxCell>
        <mxCell id="WTT6jk7BK0KkzkuvmUOc-3" value="" style="ellipse;whiteSpace=wrap;html=1;fillColor=#dae8fc;strokeColor=#6c8ebf;" vertex="1" parent="1">
          <mxGeometry x="260" y="470" width="40" height="40" as="geometry" />
        </mxCell>
        <mxCell id="WTT6jk7BK0KkzkuvmUOc-7" value="" style="endArrow=none;html=1;rounded=0;" edge="1" parent="1" source="WTT6jk7BK0KkzkuvmUOc-3" target="WTT6jk7BK0KkzkuvmUOc-2">
          <mxGeometry width="50" height="50" relative="1" as="geometry">
            <mxPoint x="390" y="510" as="sourcePoint" />
            <mxPoint x="440" y="460" as="targetPoint" />
          </mxGeometry>
        </mxCell>
        <mxCell id="WTT6jk7BK0KkzkuvmUOc-8" value="" style="endArrow=none;html=1;rounded=0;" edge="1" parent="1" source="WTT6jk7BK0KkzkuvmUOc-1" target="WTT6jk7BK0KkzkuvmUOc-2">
          <mxGeometry width="50" height="50" relative="1" as="geometry">
            <mxPoint x="390" y="510" as="sourcePoint" />
            <mxPoint x="440" y="460" as="targetPoint" />
          </mxGeometry>
        </mxCell>
        <mxCell id="WTT6jk7BK0KkzkuvmUOc-9" value="" style="ellipse;whiteSpace=wrap;html=1;fillColor=#dae8fc;strokeColor=#6c8ebf;" vertex="1" parent="1">
          <mxGeometry x="380" y="380" width="40" height="40" as="geometry" />
        </mxCell>
        <mxCell id="WTT6jk7BK0KkzkuvmUOc-10" value="" style="endArrow=none;html=1;rounded=0;" edge="1" parent="1" source="WTT6jk7BK0KkzkuvmUOc-1" target="WTT6jk7BK0KkzkuvmUOc-9">
          <mxGeometry width="50" height="50" relative="1" as="geometry">
            <mxPoint x="390" y="510" as="sourcePoint" />
            <mxPoint x="440" y="460" as="targetPoint" />
          </mxGeometry>
        </mxCell>
        <mxCell id="WTT6jk7BK0KkzkuvmUOc-11" value="" style="ellipse;whiteSpace=wrap;html=1;fillColor=#dae8fc;strokeColor=#6c8ebf;" vertex="1" parent="1">
          <mxGeometry x="450" y="350" width="40" height="40" as="geometry" />
        </mxCell>
        <mxCell id="WTT6jk7BK0KkzkuvmUOc-12" value="" style="ellipse;whiteSpace=wrap;html=1;fillColor=#dae8fc;strokeColor=#6c8ebf;" vertex="1" parent="1">
          <mxGeometry x="460" y="270" width="40" height="40" as="geometry" />
        </mxCell>
        <mxCell id="WTT6jk7BK0KkzkuvmUOc-13" value="" style="ellipse;whiteSpace=wrap;html=1;fillColor=#dae8fc;strokeColor=#6c8ebf;" vertex="1" parent="1">
          <mxGeometry x="360" y="260" width="40" height="40" as="geometry" />
        </mxCell>
        <mxCell id="WTT6jk7BK0KkzkuvmUOc-14" value="" style="endArrow=none;html=1;rounded=0;" edge="1" parent="1" source="WTT6jk7BK0KkzkuvmUOc-9" target="WTT6jk7BK0KkzkuvmUOc-11">
          <mxGeometry width="50" height="50" relative="1" as="geometry">
            <mxPoint x="390" y="510" as="sourcePoint" />
            <mxPoint x="440" y="460" as="targetPoint" />
          </mxGeometry>
        </mxCell>
        <mxCell id="WTT6jk7BK0KkzkuvmUOc-15" value="" style="endArrow=none;html=1;rounded=0;" edge="1" parent="1" source="WTT6jk7BK0KkzkuvmUOc-11" target="WTT6jk7BK0KkzkuvmUOc-12">
          <mxGeometry width="50" height="50" relative="1" as="geometry">
            <mxPoint x="390" y="510" as="sourcePoint" />
            <mxPoint x="440" y="460" as="targetPoint" />
          </mxGeometry>
        </mxCell>
        <mxCell id="WTT6jk7BK0KkzkuvmUOc-16" value="" style="endArrow=none;html=1;rounded=0;" edge="1" parent="1" source="WTT6jk7BK0KkzkuvmUOc-13" target="WTT6jk7BK0KkzkuvmUOc-11">
          <mxGeometry width="50" height="50" relative="1" as="geometry">
            <mxPoint x="450" y="190" as="sourcePoint" />
            <mxPoint x="430" y="290" as="targetPoint" />
          </mxGeometry>
        </mxCell>
        <mxCell id="WTT6jk7BK0KkzkuvmUOc-17" value="" style="ellipse;whiteSpace=wrap;html=1;fillColor=#dae8fc;strokeColor=#6c8ebf;" vertex="1" parent="1">
          <mxGeometry x="460" y="440" width="40" height="40" as="geometry" />
        </mxCell>
        <mxCell id="WTT6jk7BK0KkzkuvmUOc-18" value="" style="endArrow=none;html=1;rounded=0;" edge="1" parent="1" source="WTT6jk7BK0KkzkuvmUOc-2" target="WTT6jk7BK0KkzkuvmUOc-17">
          <mxGeometry width="50" height="50" relative="1" as="geometry">
            <mxPoint x="390" y="510" as="sourcePoint" />
            <mxPoint x="440" y="460" as="targetPoint" />
          </mxGeometry>
        </mxCell>
        <mxCell id="WTT6jk7BK0KkzkuvmUOc-19" value="" style="ellipse;whiteSpace=wrap;html=1;fillColor=#dae8fc;strokeColor=#6c8ebf;" vertex="1" parent="1">
          <mxGeometry x="320" y="340" width="40" height="40" as="geometry" />
        </mxCell>
        <mxCell id="WTT6jk7BK0KkzkuvmUOc-20" value="" style="ellipse;whiteSpace=wrap;html=1;fillColor=#dae8fc;strokeColor=#6c8ebf;" vertex="1" parent="1">
          <mxGeometry x="250" y="370" width="40" height="40" as="geometry" />
        </mxCell>
        <mxCell id="WTT6jk7BK0KkzkuvmUOc-21" value="" style="ellipse;whiteSpace=wrap;html=1;fillColor=#dae8fc;strokeColor=#6c8ebf;" vertex="1" parent="1">
          <mxGeometry x="260" y="260" width="40" height="40" as="geometry" />
        </mxCell>
        <mxCell id="WTT6jk7BK0KkzkuvmUOc-22" value="" style="endArrow=none;html=1;rounded=0;" edge="1" parent="1" source="WTT6jk7BK0KkzkuvmUOc-20" target="WTT6jk7BK0KkzkuvmUOc-21">
          <mxGeometry width="50" height="50" relative="1" as="geometry">
            <mxPoint x="390" y="510" as="sourcePoint" />
            <mxPoint x="440" y="460" as="targetPoint" />
          </mxGeometry>
        </mxCell>
        <mxCell id="WTT6jk7BK0KkzkuvmUOc-23" value="" style="endArrow=none;html=1;rounded=0;" edge="1" parent="1" source="WTT6jk7BK0KkzkuvmUOc-20" target="WTT6jk7BK0KkzkuvmUOc-19">
          <mxGeometry width="50" height="50" relative="1" as="geometry">
            <mxPoint x="390" y="510" as="sourcePoint" />
            <mxPoint x="330" y="360" as="targetPoint" />
          </mxGeometry>
        </mxCell>
        <mxCell id="WTT6jk7BK0KkzkuvmUOc-24" value="" style="endArrow=none;html=1;rounded=0;" edge="1" parent="1" source="WTT6jk7BK0KkzkuvmUOc-1" target="WTT6jk7BK0KkzkuvmUOc-19">
          <mxGeometry width="50" height="50" relative="1" as="geometry">
            <mxPoint x="390" y="510" as="sourcePoint" />
            <mxPoint x="440" y="460" as="targetPoint" />
          </mxGeometry>
        </mxCell>
        <mxCell id="WTT6jk7BK0KkzkuvmUOc-25" value="" style="ellipse;whiteSpace=wrap;html=1;fillColor=#dae8fc;strokeColor=#6c8ebf;" vertex="1" parent="1">
          <mxGeometry x="340" y="550" width="40" height="40" as="geometry" />
        </mxCell>
        <mxCell id="WTT6jk7BK0KkzkuvmUOc-26" value="" style="ellipse;whiteSpace=wrap;html=1;fillColor=#dae8fc;strokeColor=#6c8ebf;" vertex="1" parent="1">
          <mxGeometry x="410" y="560" width="40" height="40" as="geometry" />
        </mxCell>
        <mxCell id="WTT6jk7BK0KkzkuvmUOc-27" value="" style="ellipse;whiteSpace=wrap;html=1;fillColor=#dae8fc;strokeColor=#6c8ebf;" vertex="1" parent="1">
          <mxGeometry x="470" y="540" width="40" height="40" as="geometry" />
        </mxCell>
        <mxCell id="WTT6jk7BK0KkzkuvmUOc-28" value="" style="ellipse;whiteSpace=wrap;html=1;fillColor=#dae8fc;strokeColor=#6c8ebf;" vertex="1" parent="1">
          <mxGeometry x="250" y="565" width="40" height="40" as="geometry" />
        </mxCell>
        <mxCell id="WTT6jk7BK0KkzkuvmUOc-29" value="" style="endArrow=none;html=1;rounded=0;" edge="1" parent="1" source="WTT6jk7BK0KkzkuvmUOc-28" target="WTT6jk7BK0KkzkuvmUOc-25">
          <mxGeometry width="50" height="50" relative="1" as="geometry">
            <mxPoint x="390" y="510" as="sourcePoint" />
            <mxPoint x="440" y="460" as="targetPoint" />
          </mxGeometry>
        </mxCell>
        <mxCell id="WTT6jk7BK0KkzkuvmUOc-30" value="" style="endArrow=none;html=1;rounded=0;" edge="1" parent="1" source="WTT6jk7BK0KkzkuvmUOc-25" target="WTT6jk7BK0KkzkuvmUOc-2">
          <mxGeometry width="50" height="50" relative="1" as="geometry">
            <mxPoint x="390" y="510" as="sourcePoint" />
            <mxPoint x="440" y="460" as="targetPoint" />
          </mxGeometry>
        </mxCell>
        <mxCell id="WTT6jk7BK0KkzkuvmUOc-31" value="" style="endArrow=none;html=1;rounded=0;" edge="1" parent="1" source="WTT6jk7BK0KkzkuvmUOc-2" target="WTT6jk7BK0KkzkuvmUOc-26">
          <mxGeometry width="50" height="50" relative="1" as="geometry">
            <mxPoint x="390" y="510" as="sourcePoint" />
            <mxPoint x="440" y="460" as="targetPoint" />
          </mxGeometry>
        </mxCell>
        <mxCell id="WTT6jk7BK0KkzkuvmUOc-32" value="" style="endArrow=none;html=1;rounded=0;" edge="1" parent="1" source="WTT6jk7BK0KkzkuvmUOc-27" target="WTT6jk7BK0KkzkuvmUOc-26">
          <mxGeometry width="50" height="50" relative="1" as="geometry">
            <mxPoint x="390" y="510" as="sourcePoint" />
            <mxPoint x="440" y="460" as="targetPoint" />
          </mxGeometry>
        </mxCell>
      </root>
    </mxGraphModel>
  </diagram>
</mxfile>
